<?xml version="1.0" encoding="UTF-8" standalone="no"?>
<!-- Created with Inkscape (http://www.inkscape.org/) -->

<svg
   xmlns:osb="http://www.openswatchbook.org/uri/2009/osb"
   xmlns:dc="http://purl.org/dc/elements/1.1/"
   xmlns:cc="http://creativecommons.org/ns#"
   xmlns:rdf="http://www.w3.org/1999/02/22-rdf-syntax-ns#"
   xmlns:svg="http://www.w3.org/2000/svg"
   xmlns="http://www.w3.org/2000/svg"
   xmlns:sodipodi="http://sodipodi.sourceforge.net/DTD/sodipodi-0.dtd"
   xmlns:inkscape="http://www.inkscape.org/namespaces/inkscape"
   width="500"
   height="459"
   id="svg2"
   version="1.1"
   inkscape:version="0.48.4 r9939"
   sodipodi:docname="demo1.svg">
  <defs
     id="defs4">
    <linearGradient
       id="linearGradient3836"
       osb:paint="solid">
      <stop
         style="stop-color:#ffffff;stop-opacity:1;"
         offset="0"
         id="stop3838" />
    </linearGradient>
  </defs>
  <sodipodi:namedview
     id="base"
     pagecolor="#ffffff"
     bordercolor="#666666"
     borderopacity="1.0"
     inkscape:pageopacity="0.0"
     inkscape:pageshadow="2"
     inkscape:zoom="1.4"
     inkscape:cx="94.632725"
     inkscape:cy="269.53669"
     inkscape:document-units="px"
     inkscape:current-layer="layer2"
     showgrid="false"
     inkscape:window-width="1920"
     inkscape:window-height="1031"
     inkscape:window-x="0"
     inkscape:window-y="25"
     inkscape:window-maximized="1"
     inkscape:showpageshadow="false" />
  <metadata
     id="metadata7">
    <rdf:RDF>
      <cc:Work
         rdf:about="">
        <dc:format>image/svg+xml</dc:format>
        <dc:type
           rdf:resource="http://purl.org/dc/dcmitype/StillImage" />
        <dc:title />
      </cc:Work>
    </rdf:RDF>
  </metadata>
  <g
     inkscape:label="Calque 1"
     inkscape:groupmode="layer"
     id="layer1"
     transform="translate(0,-593.36218)">
    <rect
       style="fill:#ffffff;fill-opacity:1;fill-rule:nonzero;stroke:#000000;stroke-width:0;stroke-linejoin:miter;stroke-miterlimit:4;stroke-opacity:1;stroke-dasharray:none"
       id="rect3048"
       width="500"
       height="459"
       x="0"
       y="593.36218"
       ry="1.3014461" />
  </g>
  <g
     inkscape:groupmode="layer"
     id="layer2"
     inkscape:label="Calque2"
     transform="translate(0,-593.36218)"
     sodipodi:insensitive="true">
    <g
       id="g3959"
       transform="matrix(0.57915577,0,0,0.57915577,-273.60693,597.00692)">
      <path
         style="fill:#010101"
         inkscape:connector-curvature="0"
         d="m 1072.435,556.79539 -168.96316,6.72013 c 0,0 -0.96001,0 -0.96001,0 l -35.52067,-34.56065 c -1.92004,-1.92004 -4.80009,-1.92004 -6.72013,0 l -30.72058,31.68059 c -1.92003,1.92004 -1.92003,4.80009 0,6.72013 l 50.88096,48.96092 c 1.92004,1.92004 3.84007,5.76011 3.84007,7.68015 l 1.92004,155.52292 c 0,2.88006 1.92003,4.80009 4.80009,4.80009 h 59.52112 c 2.88005,0 4.80009,-1.92003 4.80009,-4.80009 v -59.52112 l 31.6806,62.40118 c 0.96001,1.92003 3.84007,3.84007 6.72012,3.84007 0,0 15.36026,0 25.92046,0 h 33.6007 c 2.88,0 3.84,-1.92004 2.88,-4.80009 l -34.5606,-77.76146 c -0.96,-2.88006 0,-4.80009 2.88,-4.80009 h 70.0813 c 2.8801,0 4.8001,1.92003 4.8001,4.80009 v 76.80144 c 0,2.88006 1.9201,4.80009 4.8001,4.80009 h 57.6011 c 2.8801,0 4.8001,-1.92003 4.8001,-4.80009 l -1.92,-130.56246 -92.1618,-93.12175 z"
         id="path3813" />
      <path
         style="fill:#010101"
         inkscape:connector-curvature="0"
         d="m 1326.8398,518.39467 c -1.92,-6.72013 -7.6801,-6.72013 -10.5602,-5.76011 -14.4003,2.88005 -41.2808,7.68014 -41.2808,7.68014 -0.96,0 -1.92,0 -1.92,-0.96001 l -25.9205,-39.36074 c -0.96,-1.92004 -4.8001,-3.84008 -6.7201,-3.84008 l -50.881,-5.76011 c -2.88,0 -6.7201,0 -8.6401,0 0,0 -65.2813,7.68015 -64.3212,9.60019 l 20.1603,91.20171 c 0.9601,2.88006 2.8801,4.80009 5.7601,3.84007 l 50.881,-1.92003 c 2.8801,0 4.8001,-1.92004 5.7601,-4.80009 l 8.6402,-46.08087 c 0,-1.92004 1.92,-3.84007 3.84,-3.84007 -0.96,0 -0.96,0 -1.92,0 h 3.8401 c -0.96,0 -0.96,0 -1.9201,0 0.9601,0.96002 1.9201,1.92003 1.9201,3.84007 l -12.4802,50.88096 c -0.9601,2.88005 -2.8801,4.80009 -5.7602,4.80009 l -57.601,2.88005 c -2.8801,0 -4.8001,-1.92003 -5.7602,-3.84007 l -10.5601,-48.96092 -36.4807,24.96047 88.3216,89.28168 29.7606,-29.76056 c 1.92,-1.92004 4.8001,-2.88006 7.6801,-3.84007 0,0 94.0818,-2.88006 115.2022,-24.00046 21.1204,-23.04043 1.92,-59.52112 0.96,-66.24124 z"
         id="path3817" />
      <path
         style="fill:#010101"
         inkscape:connector-curvature="0"
         d="m 574.18565,161.26795 c -0.96002,-1.92004 -2.88006,-2.88006 -4.80009,-2.88006 l -1.92004,0.96002 c -1.92003,0.96002 -2.88005,2.88005 -2.88005,4.80009 l 0.96002,3.84007 9.60017,-2.88005 -0.96001,-3.84007 z"
         id="path3819" />
      <path
         style="fill:#010101"
         inkscape:connector-curvature="0"
         d="m 1127.1561,13.425163 c -0.9601,-1.920036 -2.8801,-2.880054 -4.8001,-2.880054 l -1.9201,0.960018 c -1.92,0.960018 -2.88,2.880054 -2.88,4.800091 l 0.96,2.880054 9.6002,-2.880054 -0.96,-2.880055 z"
         id="path3821" />
      <path
         style="fill:#010101"
         inkscape:connector-curvature="0"
         d="m 614.5064,178.54827 c 11.52022,-4.80009 22.08042,-8.64016 30.72058,-13.44025 16.32031,-8.64016 23.04044,-15.36029 24.00045,-20.16038 l -93.12175,24.96047 4.80009,19.20036 c 12.48024,-3.84007 24.00045,-6.72013 33.60063,-10.5602 z"
         id="path3823" />
      <path
         style="fill:#010101"
         inkscape:connector-curvature="0"
         d="m 472.42373,197.74863 c 0.96002,1.92004 3.84007,2.88006 5.76011,2.88006 4.80009,0.96002 11.52022,1.92003 19.20036,1.92003 19.20036,0 47.04089,-3.84007 74.88141,-11.52021 l -4.80009,-19.20037 -95.04179,25.92049 z"
         id="path3825" />
      <path
         style="fill:#010101"
         inkscape:connector-curvature="0"
         d="m 572.26561,191.02851 c 0.96002,0 2.88005,-0.96002 3.84007,-0.96002 1.92004,-0.96002 3.84007,-0.96002 5.76011,-1.92004 l -5.76011,-18.24034 -9.60018,2.88005 5.76011,18.24035 z"
         id="path3827" />
      <path
         style="fill:#010101"
         inkscape:connector-curvature="0"
         d="m 1168.4368,28.785452 c 11.5203,-4.80009 22.0805,-8.640162 30.7206,-13.440253 16.3203,-8.6401616 23.0404,-15.36028819 24.0005,-20.1603786 l -94.0818,24.9604696 4.8001,19.200361 c 12.4802,-1.920036 24.0004,-5.760108 34.5606,-10.560199 z"
         id="path3829" />
      <path
         style="fill:#010101"
         inkscape:connector-curvature="0"
         d="m 1025.3941,48.945832 c 0.9601,1.920036 3.8401,2.880054 5.7602,2.880054 4.8,0.960018 11.5202,1.920036 19.2003,1.920036 19.2004,0 46.0809,-3.840072 73.9214,-11.520217 l -4.8001,-19.200361 -94.0818,25.920488 z"
         id="path3831" />
      <path
         style="fill:#010101"
         inkscape:connector-curvature="0"
         d="m 1125.236,43.185723 c 1.9201,0 2.8801,-0.960018 4.8001,-0.960018 1.92,0 2.8801,-0.960018 4.8001,-0.960018 l -4.8001,-19.200361 -9.6002,2.880054 4.8001,18.240344 z"
         id="path3833" />
      <path
         style="fill:#010101"
         inkscape:connector-curvature="0"
         d="m 1173.2369,86.386537 c -2.88,-11.520217 -18.2403,-12.480235 -29.7605,-11.520217 l -7.6802,-29.76056 c -1.92,0 -2.88,0.960018 -4.8001,0.960018 -1.92,0 -2.88,0.960018 -4.8001,0.960018 l 7.6802,28.800542 c -2.8801,0.960018 -5.7601,0.960018 -5.7601,0.960018 L 962.99296,120.94719 938.99251,90.226609 c -2.88005,-2.880054 -7.68014,-4.80009 -11.52021,-3.840072 L 881.39143,98.86677 c -10.5602,-6.720125 -23.04044,-9.600179 -34.56065,-5.760107 -11.52022,3.840077 -21.1204,11.520217 -26.88051,23.040437 l -42.24079,10.5602 c -3.84008,0.96001 -7.68015,4.80009 -8.64017,8.64016 l -8.64016,40.32076 -164.16309,44.16083 c 0,0 -1.92004,0.96002 -5.76011,1.92003 l -7.68014,-27.84052 c -1.92004,0.96002 -3.84007,0.96002 -5.76011,1.92004 -0.96002,0 -2.88005,0.96001 -3.84007,0.96001 l 7.68014,29.76056 c -11.52021,5.76011 -24.00045,14.40028 -21.12039,24.96047 4.80009,17.28033 23.04043,46.08087 37.4407,42.2408 14.40027,-3.84007 15.36029,-12.48024 15.36029,-12.48024 l 4.80009,-48.96092 c 0,0 77.76146,-21.12039 171.84323,-46.08086 l 0,0 -1.92003,-0.96002 c 0,0 0,0 0,0.96002 l 26.8805,41.28077 0.96002,1.92004 0.96002,1.92004 c -0.96002,1.92003 -1.92004,3.84007 -2.88006,5.7601 -3.84007,8.64017 -7.68014,17.28033 -8.64016,25.92049 -1.92003,7.68015 -1.92003,15.36029 -0.96002,22.08042 0,0 0,0 0,0 0,0 0,0 0,0 0,0 0,0 0,0 -0.96001,0 -0.96001,0 -1.92003,-0.96002 -0.96002,0 -0.96002,0 -1.92004,0 -1.92003,0 -2.88005,-0.96002 -4.80009,-0.96002 -1.92003,0 -2.88005,0 -3.84007,0 -5.76011,0 -10.5602,1.92004 -12.48024,3.84007 -0.96001,1.92004 -1.92003,2.88006 -0.96001,5.76011 1.92003,6.72013 5.7601,13.44025 11.52021,19.20036 4.80009,4.80009 10.5602,9.60018 17.28033,13.44026 2.88005,1.92003 5.76011,2.88005 8.64016,4.80009 -1.92004,-3.84008 -3.84007,-8.64017 -5.76011,-14.40027 0,0 0,-0.96002 0,-0.96002 0,0 0,0 0,0 0,0 0,0 0,0 -0.96002,-0.96002 -1.92003,-1.92004 -2.88005,-1.92004 -3.84007,-3.84007 -7.68015,-7.68014 -9.60018,-10.5602 -1.92004,-3.84007 -2.88006,-5.76011 -1.92004,-6.72012 0,0 0.96002,-0.96002 1.92004,-0.96002 0.96002,0 2.88005,0 3.84007,0.96002 0.96002,0 1.92004,0.96001 2.88005,1.92003 0.96002,0 0.96002,0.96002 1.92004,0.96002 0.96002,0 0.96002,0.96002 1.92004,0.96002 1.92003,7.68014 3.84007,14.40027 5.7601,19.20036 0,0 0,0 0,0 0,0 0,0 0,0 2.88006,6.72013 4.8001,10.5602 6.72013,14.40027 0,0 0,0 0,0 0,0 0,0 0,0 1.92004,3.84007 3.84007,5.76011 3.84007,5.76011 l 0,0 0,0 c 0,0 0.96002,0.96002 1.92004,1.92004 0.96002,0.96001 1.92004,1.92003 1.92004,1.92003 0,0 0,-0.96002 0,-1.92003 0,-1.92004 0,-3.84008 -0.96002,-5.76011 0,0 0,0 0,0 0,0 0,0 0,0 0,0 0,0 0,0 -0.96002,-5.76011 -2.88006,-9.60018 -3.84007,-12.48024 0,0 0,0 0,0 0,0 0,0 0,0 -0.96002,-1.92003 -0.96002,-2.88005 -1.92004,-4.80009 -1.92004,-3.84007 -3.84007,-7.68014 -6.72013,-14.40027 0,0 0,0 0,0 0,0 0,0 0,0 0.96002,0.96002 1.92004,1.92004 2.88006,1.92004 0.96002,0.96001 1.92003,1.92003 2.88005,2.88005 1.92004,1.92004 2.88006,3.84007 4.80009,5.76011 1.92004,3.84007 2.88006,5.76011 1.92004,6.72013 1.92003,2.88005 2.88005,6.72012 3.84007,12.48023 0,1.92004 0.96002,3.84007 0.96002,4.80009 2.88005,6.72013 9.60018,22.08042 13.44025,36.48069 1.92004,6.72012 6.72013,24.96047 15.36029,45.12085 3.84007,9.60018 7.68014,19.20036 12.48024,26.8805 4.80009,9.60018 9.60018,17.28033 15.36028,23.04044 4.80009,5.76011 11.52022,10.5602 21.1204,15.36029 7.68015,3.84007 16.32031,6.72012 26.88051,9.60018 18.24034,4.80009 36.48068,5.7601 44.16083,6.72012 0.96002,0 1.92004,0 1.92004,0 5.7601,0.96002 17.28032,2.88006 29.76057,6.72013 8.6402,1.92004 23.0404,6.72013 26.8805,11.52022 7.6801,7.68014 34.5606,35.52066 35.5207,35.52066 l 12.4802,-4.80009 c -0.96,-0.96001 -21.1204,-23.04043 -35.5207,-36.48068 -3.84,-3.84007 -8.6401,-6.72013 -15.3603,-9.60018 -5.7601,-2.88006 -12.4802,-4.80009 -20.1603,-6.72013 -6.7202,-1.92004 -13.4403,-3.84007 -21.12044,-4.80009 -6.72013,-0.96002 -12.48023,-1.92004 -17.28033,-1.92004 -9.60018,0 -26.8805,-3.84007 -44.16083,-8.64016 -8.64016,-2.88005 -16.3203,-5.76011 -23.04043,-8.64016 -6.72013,-2.88006 -11.52022,-6.72013 -14.40027,-9.60018 -1.92004,-2.88006 -4.80009,-6.72013 -7.68015,-10.5602 -2.88005,-5.76011 -6.72012,-11.52022 -9.60018,-19.20036 -8.64016,-18.24035 -16.3203,-40.32076 -24.00045,-67.20127 -3.84007,-14.40027 -14.40027,-38.40072 -14.40027,-38.40072 l 0,0 0,0 c 0,0 0,-2.88005 -0.96002,-7.68014 -0.96002,-2.88006 -2.88005,-5.76011 -4.80009,-9.60018 -2.88005,-3.84008 -5.76011,-8.64017 -9.60018,-13.44026 -2.88005,-2.88005 -5.76011,-5.76011 -9.60018,-8.64016 0,0 0,0 0,0 -0.96002,0 -0.96002,-0.96002 -1.92004,-0.96002 -0.96001,0 -0.96001,-0.96002 -1.92003,-0.96002 -0.96002,0 -0.96002,-0.96001 -1.92004,-0.96001 0,0 0,0 0,0 0,0 0,0 0,0 0,0 0,0 0,0 -0.96002,-6.72013 -0.96002,-14.40028 0.96002,-24.00046 1.92004,-7.68014 4.80009,-16.3203 9.60018,-24.96047 0,-0.96001 0.96002,-0.96001 0.96002,-1.92003 l 0.96002,0.96002 c 0,0 0,0 0,0 0,0 0,0 0.96002,0 l 1.92003,0 120.00226,-34.56065 c 15.36029,8.64016 31.6806,21.12039 37.44071,36.48068 10.56019,29.76056 4.80009,30.72058 12.48023,49.92094 7.68014,19.20036 7.68014,0 7.68014,0 0,0 1.92,-14.40027 -11.52021,-51.84097 -6.72013,-19.20037 -24.96047,-33.60064 -41.28078,-43.20082 l 0,-51.84097 c 0,0 0,0 -0.96002,0 l -2.88005,0.96001 0,0 c 92.16176,-24.96047 167.04316,-45.12084 167.04316,-45.12084 0,0 27.8405,28.80054 33.6006,39.36074 6.7201,9.60018 19.2004,19.20036 26.8805,1.92003 6.7202,-17.28032 4.8001,-32.64061 0,-51.840973 z"
         id="path3857" />
    </g>
  </g>
</svg>
