<?xml version="1.0" encoding="UTF-8" standalone="no"?>
<!-- Created with Inkscape (http://www.inkscape.org/) -->

<svg
   xmlns:osb="http://www.openswatchbook.org/uri/2009/osb"
   xmlns:dc="http://purl.org/dc/elements/1.1/"
   xmlns:cc="http://creativecommons.org/ns#"
   xmlns:rdf="http://www.w3.org/1999/02/22-rdf-syntax-ns#"
   xmlns:svg="http://www.w3.org/2000/svg"
   xmlns="http://www.w3.org/2000/svg"
   xmlns:sodipodi="http://sodipodi.sourceforge.net/DTD/sodipodi-0.dtd"
   xmlns:inkscape="http://www.inkscape.org/namespaces/inkscape"
   width="500"
   height="459"
   id="svg2"
   version="1.1"
   inkscape:version="0.48.4 r9939"
   sodipodi:docname="demo2.svg">
  <defs
     id="defs4">
    <linearGradient
       id="linearGradient3836"
       osb:paint="solid">
      <stop
         style="stop-color:#ffffff;stop-opacity:1;"
         offset="0"
         id="stop3838" />
    </linearGradient>
  </defs>
  <sodipodi:namedview
     id="base"
     pagecolor="#ffffff"
     bordercolor="#666666"
     borderopacity="1.0"
     inkscape:pageopacity="0.0"
     inkscape:pageshadow="2"
     inkscape:zoom="0.7"
     inkscape:cx="64.678729"
     inkscape:cy="199.90225"
     inkscape:document-units="px"
     inkscape:current-layer="layer2"
     showgrid="false"
     inkscape:window-width="1920"
     inkscape:window-height="1031"
     inkscape:window-x="0"
     inkscape:window-y="25"
     inkscape:window-maximized="1"
     inkscape:showpageshadow="false" />
  <metadata
     id="metadata7">
    <rdf:RDF>
      <cc:Work
         rdf:about="">
        <dc:format>image/svg+xml</dc:format>
        <dc:type
           rdf:resource="http://purl.org/dc/dcmitype/StillImage" />
        <dc:title />
      </cc:Work>
    </rdf:RDF>
  </metadata>
  <g
     inkscape:label="Calque 1"
     inkscape:groupmode="layer"
     id="layer1"
     transform="translate(0,-593.36218)"
     sodipodi:insensitive="true">
    <rect
       style="fill:#ffffff;fill-opacity:1;fill-rule:nonzero;stroke:#000000;stroke-width:0;stroke-linejoin:miter;stroke-miterlimit:4;stroke-opacity:1;stroke-dasharray:none"
       id="rect3048"
       width="500"
       height="459"
       x="0"
       y="593.36218"
       ry="1.3014461" />
  </g>
  <g
     inkscape:groupmode="layer"
     id="layer2"
     inkscape:label="Calque2"
     transform="translate(0,-593.36218)"
     sodipodi:insensitive="true">
    <g
       id="g3885"
       transform="matrix(5.5617359,0,0,5.7018634,-830.56584,-3214.4931)">
      <polygon
         transform="translate(146.93572,659.42647)"
         id="polygon3658"
         points="42.1,39.4 42.1,39.4 42.1,39.4 "
         style="fill:none" />
      <path
         id="path3660"
         d="m 219.33572,681.32647 c 0,-0.1 0,-0.2 0,-0.3 0,-0.1 -0.1,-0.1 -0.2,-0.2 l 0,0 c 0,0 -0.1,0 -0.1,0 -0.2,0 -0.3,0.1 -0.4,0.3 l -0.1,0.2 0.7,0.2 0.1,-0.2 z"
         inkscape:connector-curvature="0"
         style="fill:#010101" />
      <path
         id="path3662"
         d="m 175.03572,669.42647 c 0,-0.1 0,-0.2 0,-0.3 -0.1,0 -0.1,-0.1 -0.2,-0.1 0,0 -0.1,0 -0.1,0 -0.2,0 -0.3,0.1 -0.4,0.3 l 0,0.2 0.7,0.2 0,-0.3 z"
         inkscape:connector-curvature="0"
         style="fill:#010101" />
      <path
         id="path3664"
         d="m 174.33572,669.22647 c 0.1,-0.2 0.3,-0.3 0.5,-0.3 0.2,0.1 0.3,0.3 0.3,0.5 l 0,0.2 0,0 0,-0.2 c 0,-0.1 0,-0.2 0,-0.3 -0.2,0 -0.2,-0.1 -0.3,-0.1 0,0 -0.1,0 -0.1,0 -0.2,0 -0.4,0.1 -0.4,0.2 l 0,0.2 0,0 0,-0.2 z"
         inkscape:connector-curvature="0"
         style="fill:#ffffff" />
      <path
         id="path3666"
         d="m 174.33572,669.22647 c 0,-0.2 0.2,-0.3 0.4,-0.3 0,0 0.1,0 0.1,0 0.1,0 0.2,0.1 0.2,0.2 0.1,0.1 0.1,0.2 0,0.3 l 0,0.2 0,0 0,-0.2 c 0.1,-0.2 -0.1,-0.4 -0.3,-0.5 -0.1,0 -0.4,0.1 -0.4,0.3 l 0,0.2 0,0 0,-0.2 z"
         inkscape:connector-curvature="0"
         style="fill:#ffffff" />
      <polygon
         transform="translate(146.93572,659.42647)"
         id="polygon3668"
         points="63.9,20 63.9,20 63.9,20 "
         style="fill:#ffffff" />
      <path
         id="path3670"
         d="m 175.03572,670.02647 0,0 0,0 -0.1,0 0,0 -0.8,-0.2 -7.5,-2 c 0.1,0.3 0.6,0.9 2,1.6 1.3,0.7 3.1,1.4 5.1,1.9 l 0,0 c 0,0 0,0 0,0 0,0 0.1,0 0.1,0 0,0 0,0 0,0 0,0 0,0 0,0 l 0,0 c 0.1,0 0.3,0.1 0.4,0.1 0.1,0 0.2,0.1 0.3,0.1 l 0,0 c 0,0 0,0 0,0 0,0 0,0 0,0 0,0 0.1,0 0.1,0 0,0 0,0 0,0 l 0,0 c 2.3,0.6 4.5,0.9 6,0.9 0,0 0,0 0,0 0.6,0 1.1,0 1.4,-0.1 0.2,0 0.3,-0.1 0.5,-0.2 l -7.5,-2.1 z"
         inkscape:connector-curvature="0"
         style="fill:#010101" />
      <rect
         id="rect3672"
         height="0.1"
         width="0"
         y="698.62646"
         x="189.03572"
         style="fill:#010101" />
      <path
         id="path3674"
         d="m 202.43572,694.62647 -0.6,-2.4 c 0,-0.1 -0.1,-0.1 -0.1,-0.1 0,0 0,0 0,0 l 0,0 c 0,0 -0.5,0.1 -1.3,0.2 -0.2,0 -0.4,0.1 -0.6,0.1 0,0 0,0 0,0 0,0 0,0 0,0 -0.3,0.1 -0.6,0.2 -1,0.3 0,0 0,0 0,0 0,0 0,0 0,0 -0.4,0.1 -0.8,0.3 -1.2,0.4 -1,0.4 -1.7,0.8 -2.1,1.1 -0.5,0.3 -0.7,0.5 -0.7,0.5 l 0,0 c 0,0 0,0 0,0.1 0,0 0,0.1 0,0.1 l 0.5,0.7 c 0,0.1 0.1,0.1 0.2,0.1 0,0 0,0 0,0 l 3.6,-0.6 v -0.3 c 0,-0.2 0.2,-0.4 0.4,-0.4 l 0.7,0 c 0.1,0 0.2,0 0.3,0.1 0.1,0.1 0.1,0.2 0.1,0.3 v 0.1 l 1.8,-0.3 c -0.1,0.1 -0.1,0 0,0 0,0 0,0 0,0 z"
         inkscape:connector-curvature="0"
         style="fill:#010101" />
      <path
         id="path3676"
         d="m 202.13572,699.22647 h -13.1 c -0.1,0 -0.2,0.1 -0.2,0.2 l 0,0 c 0,0.1 0.1,0.2 0.2,0.2 h 13.1 c 0.1,0 0.2,-0.1 0.2,-0.2 0,0 -0.1,-0.2 -0.2,-0.2 z"
         inkscape:connector-curvature="0"
         style="fill:#010101" />
      <path
         id="path3678"
         d="m 239.13571,744.82647 c 0,0 -0.8,0 -2.2,-0.3 -0.8,-0.1 -1.6,-0.3 -2.4,-0.5 -1,-0.3 -2,-0.6 -3,-1 -2.5,-1 -4.8,-2.3 -6.79999,-3.9 -1.2,-1 -2.4,-2 -3.4,-3.2 -1.2,-1.3 -2.2,-2.7 -3.2,-4.2 -1.1,-1.7 -2.1,-3.8 -2.9,-6.2 -0.8,-2.3 -1.5,-4.8 -2.1,-7.5 -0.2,-0.9 -0.4,-1.7 -0.5,-2.6 -0.1,0 -0.3,0 -0.4,0 0.2,0.9 0.3,1.8 0.5,2.7 0.6,2.7 1.3,5.3 2.1,7.6 0.9,2.4 1.9,4.5 3,6.3 1,1.5 2.1,2.9 3.2,4.2 1.1,1.2 2.3,2.3 3.5,3.2 2.09999,1.6 4.39999,3 6.89999,3.9 1,0.4 2,0.7 3,1 0.8,0.2 1.6,0.4 2.4,0.5 1.3,0.2 2.2,0.3 2.2,0.3 l 0.2,0 0,-0.4 -0.1,0.1 z"
         inkscape:connector-curvature="0"
         style="fill:#010101" />
      <g
         transform="translate(146.93572,659.42647)"
         id="g3680">
        <path
           id="path3682"
           d="M 72.5,27.3 C 72.2,27 71.8,26.7 71.2,26.5 l 0,0 0,0 0.6,-2.2 c -0.1,0 -0.2,-0.1 -0.3,-0.1 -0.1,0 -0.3,-0.1 -0.4,-0.1 l -0.6,2.1 0,0 C 70.2,26.1 70,26 70,26 l -13.2,-3.5 0,0 -0.7,-3.1 C 56,19.1 55.8,18.9 55.5,18.8 l -3.5,-1 0,0 C 51.8,17.4 51.5,17 51.1,16.7 50.7,16.4 50.3,16.2 49.8,16.1 49.6,16 49.3,16 49,16 c -0.6,0 -1.3,0.2 -1.9,0.5 l 0,0 0,0 -3.8,-1 c -0.1,0 -0.1,0 -0.2,0 -0.2,0 -0.5,0.1 -0.6,0.3 l -1.9,2.3 0,0 -13.2,-3.5 c 0,0 -0.2,0 -0.4,-0.1 l 0,0 0,0 0.6,-2.1 c -0.1,0 -0.2,-0.1 -0.3,-0.1 -0.1,0 -0.3,-0.1 -0.4,-0.1 0,0 0,0 0,0 0,0 0,0 0,0 l -0.6,2.2 c -0.2,0 -0.4,0 -0.6,0 -0.5,0 -0.8,0.1 -1.1,0.2 -0.4,0.1 -0.6,0.4 -0.7,0.7 -0.2,0.8 -0.3,1.4 -0.3,2 0,0.7 0.2,1.3 0.5,2 0.1,0.3 0.3,0.5 0.4,0.6 0.2,0.1 0.3,0.2 0.5,0.2 0.5,0 1,-0.4 1.2,-0.8 0.5,-0.7 2.6,-2.8 2.6,-2.9 l 13.4,3.6 0.1,3.3 c -0.7,0.5 -1.4,1 -1.9,1.5 -0.6,0.7 -1.1,1.4 -1.3,2.1 -0.4,1.5 -0.5,2.5 -0.5,3 0,0.6 0,0.9 0,0.9 0,0 0.1,0.6 0.2,0.6 0.1,0 0.2,-0.2 0.4,-0.7 0.2,-0.7 0.2,-1 0.2,-1.5 0,-0.5 0,-1.1 0.3,-2.3 0.2,-0.6 0.5,-1.2 1.1,-1.8 0.5,-0.5 1.1,-0.9 1.8,-1.4 l 9.5,2.7 c 0.4,0.7 0.6,1.4 0.8,2 0.2,0.8 0.2,1.4 0.1,2 -0.1,0.3 -0.2,0.6 -0.3,0.9 0,0 0,0 0,0 0,0 0,0 0,0 0.2,-0.1 0.5,-0.1 0.7,-0.1 0,-0.1 0.1,-0.3 0.1,-0.4 0.2,-0.7 0.2,-1.5 0,-2.4 -0.2,-0.7 -0.4,-1.4 -0.8,-2.2 l 0,0 0,0 1.8,-2.8 0,0 13.8,3.7 0,0 0,0 0.5,3.7 c 0,0 0,0.2 0.2,0.4 0.1,0.2 0.4,0.4 1,0.6 0.1,0 0.2,0 0.2,0 0.3,0 0.5,-0.1 0.8,-0.3 0.3,-0.2 0.5,-0.5 0.8,-0.8 0.2,-0.3 0.5,-0.7 0.6,-1 0.2,-0.4 0.3,-0.7 0.4,-1 0.3,-0.7 0.1,-1 -0.3,-1.4 z"
           inkscape:connector-curvature="0"
           style="fill:#010101" />
        <path
           id="path3684"
           d="m 72.4,22.5 0,0 0,0 -0.8,-0.2 -7.5,-2 c 0.1,0.3 0.6,0.9 2,1.6 1.3,0.7 3.1,1.4 5.1,1.9 l 0,0 c 0,0 0,0 0,0 0,0 0,0 0,0 l 0,0 c 0.1,0 0.3,0.1 0.4,0.1 0.1,0 0.2,0.1 0.3,0.1 l 0,0 c 0,0 0,0 0,0 0,0 0,0 0,0 l 0,0 c 2.3,0.6 4.5,0.9 6.1,0.9 0,0 0,0 0,0 0.6,0 1.1,0 1.4,-0.1 0.2,0 0.3,-0.1 0.5,-0.2 l -7.5,-2.1 z"
           inkscape:connector-curvature="0"
           style="fill:#010101" />
        <path
           id="path3686"
           d="M 63.9,36.3 C 63.6,34.9 63.2,33.7 62.6,32.8 62.2,32.1 61.7,31.5 61.2,31.1 60.9,30.9 60.7,30.7 60.4,30.6 60.1,30.4 59.7,30.2 59.2,30.1 58.9,30 58.5,30 58.1,30 c -0.3,0 -0.6,0 -0.8,0.1 0,0 -0.1,0 -0.1,0 -0.2,0 -0.3,0.1 -0.3,0.1 l -0.2,0.1 0,0.1 -1.2,0.4 c -0.1,0 -0.3,0.1 -0.4,0.1 l 0,0 c 0,0 -0.7,0.1 -1.8,0.3 0,0 0,0 0,0 0,0 0,0 0,0 -0.2,0 -0.5,0.1 -0.7,0.2 0,0 0,0 0,0 0,0 0,0 0,0 -0.2,0 -0.3,0.1 -0.5,0.1 -1,0.2 -1.9,0.5 -2.6,0.8 -1,0.4 -1.8,0.7 -2.4,1.2 -0.6,0.4 -1.2,1 -1.9,1.7 -0.5,0.6 -1.1,1.2 -1.6,1.9 -0.8,1.1 -1.4,2 -1.5,2.2 l 12,0 c 0.1,0 0.3,0 0.3,-0.1 l 3.1,-1.6 c 0,0 0.1,-0.1 0.1,-0.1 l -1.7,-5.9 c -0.1,-0.2 0.1,-0.4 0.2,-0.4 l 1.1,-0.3 0,-0.1 c 0,0 0.1,0 0.1,0 0,0 0.1,0 0.1,0 0.2,0 0.5,-0.1 0.8,-0.1 0.4,0 0.7,0 1,0.1 0.4,0.1 0.7,0.2 1,0.4 0,0 0,0 0.1,0 0.2,0.1 0.5,0.2 0.7,0.4 0.5,0.4 0.9,0.9 1.3,1.5 0.5,0.9 1,2.1 1.3,3.4 0.4,1.7 0.6,3.7 0.6,6.1 0,1.2 0,2.4 0.1,3.7 0.1,0 0.3,0 0.4,0 -0.1,-1.2 -0.1,-2.5 -0.1,-3.7 -0.1,-2.5 -0.3,-4.6 -0.7,-6.3 z m -8.2,-0.9 c -0.1,0.1 -0.2,0.1 -0.3,0.1 h -2 v -0.4 c 0,-0.1 0,-0.1 -0.1,-0.1 l -0.7,0 c -0.1,0 -0.1,0.1 -0.1,0.1 v 0.6 l -3.9,0.6 c 0,0 0,0 -0.1,0 -0.2,0 -0.4,-0.1 -0.5,-0.2 l -0.5,-0.7 c -0.1,-0.1 -0.1,-0.2 -0.1,-0.3 0,-0.1 0.1,-0.2 0.2,-0.3 0,0 0.3,-0.2 0.7,-0.5 0.4,-0.3 1.2,-0.7 2.2,-1.1 0.3,-0.1 0.8,-0.3 1.4,-0.5 0,0 0,0 0,0 0,0 0,0 0,0 0.3,-0.1 0.6,-0.2 1,-0.2 0,0 0,0 0,0 0,0 0,0 0,0 0.1,0 0.2,-0.1 0.4,-0.1 0.8,-0.1 1.3,-0.2 1.3,-0.2 0,0 0,0 0,0 0.2,0 0.4,0.1 0.4,0.3 l 0.6,2.4 c 0.1,0.3 0.1,0.4 0.1,0.5 z"
           inkscape:connector-curvature="0"
           style="fill:#010101" />
      </g>
      <path
         id="path3688"
         d="m 173.73572,748.12647 c -0.1,0.1 -0.1,0.2 -0.1,0.2 0,0 0.1,0 0.2,0 h 4.2 c 0.3,0 0.8,-0.2 1,-0.5 l 29,-32.1 -5.2,-0.1 -29.1,32.5 z"
         inkscape:connector-curvature="0"
         style="fill:#010101" />
      <polygon
         transform="translate(146.93572,659.42647)"
         id="polygon3690"
         points="27.5,55.6 42.5,70 44.4,67.9 32.7,55.7 "
         style="fill:#010101" />
      <path
         id="path3692"
         d="m 232.13571,713.42647 c -0.4,-1.1 -2.5,-2.6 -5.99999,-4.3 -2.7,-1.3 -5.2,-2.4 -5.2,-2.4 l 0,0 c -1,-0.4 -2.8,-0.8 -3.9,-0.8 -0.1,0 -2.2,0 -5.5,-0.1 -0.1,0 -0.3,0 -0.4,0 -4.9,0 -12.3,-0.1 -19.4,-0.1 -7.7,0 -13.5,0.1 -17.2,0.2 -2.8,0.1 -5.6,0.3 -8.4,0.6 -2.3,0.2 -4.5,0.5 -6.7,0.8 -3.7,0.5 -5.9,1 -5.9,1 l 0,0 c -0.3,0.1 -0.9,0.2 -1.3,0.3 l 0,0 c 0,0 -0.8,0.2 -1.5,0.5 -0.4,0.2 -0.8,0.4 -1,0.5 -0.2,0.2 -0.4,0.4 -0.4,0.5 0,0.1 0.2,0.3 0.4,0.4 0.4,0.2 1,0.3 1.7,0.5 5.5,1 22.2,3.4 22.3,3.4 l 0.1,0 0,0 5.3,0.1 -0.2,-0.2 0.4,0 23.6,0.9 0.4,0 -0.1,0.1 5.2,0.1 0.1,-0.1 0.1,-0.1 h 0.1 c 0,0 1.4,0 3.4,0 0.1,0 0.3,0 0.4,0 4.9,0 13.5,-0.1 17.69999,-0.2 1.1,-0.2 1.8,-0.5 1.9,-0.9 0.2,-0.2 0.1,-0.4 0,-0.7 z"
         inkscape:connector-curvature="0"
         style="fill:#010101" />
      <path
         id="path3694"
         d="m 194.83572,731.12647 -2.1,2.3 12.8,13.8 c 0.3,0.3 0.9,0.6 1.4,0.6 l 3.1,0 c 0.2,0 0.4,-0.1 0.4,-0.2 0,-0.1 0,-0.3 -0.2,-0.4 l -15.4,-16.1 z"
         inkscape:connector-curvature="0"
         style="fill:#010101" />
    </g>
  </g>
</svg>
