<?xml version="1.0" encoding="UTF-8" standalone="no"?>
<!-- Created with Inkscape (http://www.inkscape.org/) -->

<svg
   xmlns:osb="http://www.openswatchbook.org/uri/2009/osb"
   xmlns:dc="http://purl.org/dc/elements/1.1/"
   xmlns:cc="http://creativecommons.org/ns#"
   xmlns:rdf="http://www.w3.org/1999/02/22-rdf-syntax-ns#"
   xmlns:svg="http://www.w3.org/2000/svg"
   xmlns="http://www.w3.org/2000/svg"
   xmlns:sodipodi="http://sodipodi.sourceforge.net/DTD/sodipodi-0.dtd"
   xmlns:inkscape="http://www.inkscape.org/namespaces/inkscape"
   width="500"
   height="459"
   id="svg2"
   version="1.1"
   inkscape:version="0.48.4 r9939"
   sodipodi:docname="demo3.svg">
  <defs
     id="defs4">
    <linearGradient
       id="linearGradient3836"
       osb:paint="solid">
      <stop
         style="stop-color:#ffffff;stop-opacity:1;"
         offset="0"
         id="stop3838" />
    </linearGradient>
  </defs>
  <sodipodi:namedview
     id="base"
     pagecolor="#ffffff"
     bordercolor="#666666"
     borderopacity="1.0"
     inkscape:pageopacity="0.0"
     inkscape:pageshadow="2"
     inkscape:zoom="0.7"
     inkscape:cx="-122.18513"
     inkscape:cy="267.92943"
     inkscape:document-units="px"
     inkscape:current-layer="layer2"
     showgrid="false"
     inkscape:window-width="1920"
     inkscape:window-height="1031"
     inkscape:window-x="0"
     inkscape:window-y="25"
     inkscape:window-maximized="1"
     inkscape:showpageshadow="false" />
  <metadata
     id="metadata7">
    <rdf:RDF>
      <cc:Work
         rdf:about="">
        <dc:format>image/svg+xml</dc:format>
        <dc:type
           rdf:resource="http://purl.org/dc/dcmitype/StillImage" />
        <dc:title />
      </cc:Work>
    </rdf:RDF>
  </metadata>
  <g
     inkscape:label="Calque 1"
     inkscape:groupmode="layer"
     id="layer1"
     transform="translate(0,-593.36218)"
     style="display:inline"
     sodipodi:insensitive="true">
    <rect
       style="fill:#ffffff;fill-opacity:1;fill-rule:nonzero;stroke:#000000;stroke-width:0;stroke-linejoin:miter;stroke-miterlimit:4;stroke-opacity:1;stroke-dasharray:none"
       id="rect3048"
       width="500"
       height="459"
       x="0"
       y="593.36218"
       ry="1.3014461" />
  </g>
  <g
     inkscape:groupmode="layer"
     id="layer2"
     inkscape:label="Calque2"
     transform="translate(0,-593.36218)"
     style="display:inline"
     sodipodi:insensitive="true">
    <g
       id="g4506"
       transform="matrix(5.5617353,0,0,5.043956,-30.033371,565.11603)">
      <path
         style="fill:#010101"
         inkscape:connector-curvature="0"
         d="m 78.2,73.7 c 0.2,-0.1 0.3,-0.3 0.3,-0.5 V 68.1 L 35.8,90.8 c -0.1,0.1 -0.2,0.2 -0.3,0.4 v 5.2 L 78.2,73.7 z"
         id="path4508" />
      <path
         style="fill:#010101"
         inkscape:connector-curvature="0"
         d="M 34.7,90.4 5.4,55.4 v 5.3 c 0,0.1 0.1,0.4 0.2,0.5 l 29.3,35.4 c 0,-0.1 0,-0.1 0,-0.2 v -5.2 c 0,-0.1 0,-0.1 0,-0.2 v -0.2 c -0.1,-0.1 -0.2,-0.3 -0.2,-0.4 z"
         id="path4510" />
      <path
         style="fill:#010101"
         inkscape:connector-curvature="0"
         d="m 46.7,58.7 c -0.1,-0.3 -0.2,-0.6 -0.4,-0.9 -0.2,-0.3 -0.4,-0.5 -0.6,-0.7 -0.5,-0.4 -1.1,-0.6 -1.7,-0.6 -0.2,0 -0.4,0 -0.6,0.1 -0.7,0.2 -1.3,0.6 -1.7,1.2 -0.4,0.6 -0.5,1.3 -0.3,2 0.1,0.3 0.2,0.6 0.4,0.9 0.2,0.3 0.4,0.5 0.6,0.7 0.5,0.4 1.1,0.6 1.7,0.6 0,0 0,0 0,0 0.2,0 0.4,0 0.6,-0.1 0.7,-0.2 1.3,-0.6 1.7,-1.2 0.3,-0.5 0.5,-1.3 0.3,-2 z"
         id="path4512" />
      <path
         style="fill:#010101"
         inkscape:connector-curvature="0"
         d="m 85.2,24.4 c 0.1,-0.3 -0.1,-0.6 -0.4,-0.6 l 0,0 c -0.3,-0.1 -0.6,0.1 -0.6,0.4 l -0.1,0.2 1,0.3 0.1,-0.3 z"
         id="path4514" />
      <path
         style="fill:#010101"
         inkscape:connector-curvature="0"
         d="M 23.6,7.9 C 23.7,7.6 23.5,7.3 23.2,7.3 l 0,0 C 22.9,7.2 22.6,7.4 22.6,7.7 l 0,0.1 1,0.3 0,-0.2 z"
         id="path4516" />
      <g
         id="g4518">
        <path
           style="fill:#010101"
           inkscape:connector-curvature="0"
           d="M 72.4,61.6 54.5,40.5 53.7,39.6 47,31.6 40,35.4 c 0,0 0,0.1 0,0.1 0.1,0.5 0.2,1.1 0.1,2 0,0.4 -0.1,0.6 -0.2,0.8 -0.1,0.3 -0.3,0.3 -0.4,0.3 0,0 0,0 0,0 -0.2,0 -0.4,-0.3 -0.5,-0.5 -0.1,-0.2 -0.1,-0.3 -0.2,-0.4 0,-0.1 -0.3,-0.6 -0.4,-1.6 l -33,18.1 c 0,0 0,0 0,0 0,0 0,0 0,0 L 35.3,90 c 0,0 0.1,0.1 0.2,0.1 0,0 0.1,0 0.1,0 L 77.4,67.8 c 0,0 0,0 0,0 0,0 0,0 0,0 l -5,-6.2 z M 32.2,60.2 c 0,0.1 -0.1,0.1 -0.1,0.2 l -2.6,-1.6 0.1,-0.2 c 0,0 0.8,-1.2 2,-2.6 0.7,-0.9 1.5,-1.7 2.2,-2.4 0.9,-0.9 1.9,-1.7 2.7,-2.4 0.9,-0.6 1.9,-1.3 3,-1.8 0.9,-0.4 1.8,-0.9 2.8,-1.2 1.7,-0.6 2.8,-0.9 2.9,-0.9 l 0.2,0 0,0.2 0.6,2.7 c -0.1,0 -0.1,0 -0.2,0.1 -0.1,0 -0.1,0 -0.2,0.1 -0.4,0.1 -1.1,0.3 -1.9,0.6 -0.9,0.3 -1.7,0.7 -2.5,1.1 -1,0.5 -2,1.1 -2.9,1.7 -0.9,0.6 -1.8,1.4 -2.7,2.3 -0.7,0.7 -1.4,1.4 -2,2.2 -0.6,0.7 -1,1.4 -1.3,1.8 0,0 -0.1,0 -0.1,0.1 z m 6,4.1 c 0.1,0 0.1,0 0,0 0.2,0 0.3,0 0.4,0 0.1,0 0.1,0 0.1,0 0.1,0 0.1,0 0.2,0 0.6,-0.2 1.1,-0.6 1.5,-1.2 0.4,-0.6 0.5,-1.3 0.3,-2 -0.1,-0.3 -0.2,-0.6 -0.4,-0.9 -0.2,-0.3 -0.4,-0.5 -0.6,-0.7 -0.5,-0.4 -1.1,-0.6 -1.6,-0.6 -0.2,0 -0.4,0 -0.6,0.1 -0.7,0.2 -1.3,0.6 -1.7,1.2 -0.3,0.6 -0.5,1.2 -0.4,1.9 0,0 0,0.1 0,0.1 0,0 0,0.1 0,0.2 0,0.1 0.1,0.2 0.1,0.4 l -3,-1.9 c 0,-0.1 0.1,-0.1 0.1,-0.2 0,-0.1 0.1,-0.1 0.1,-0.2 0.3,-0.4 0.7,-1 1.3,-1.7 0.6,-0.8 1.3,-1.5 2,-2.2 0.8,-0.8 1.7,-1.5 2.6,-2.1 0.9,-0.6 1.8,-1.2 2.8,-1.7 0.8,-0.4 1.6,-0.8 2.5,-1.1 0.7,-0.3 1.3,-0.5 1.8,-0.6 0.1,0 0.1,0 0.2,-0.1 0.1,0 0.2,0 0.2,-0.1 l 2.6,11.5 c -0.1,0 -0.1,0.1 -0.2,0.1 -0.1,0 -0.1,0.1 -0.2,0.1 -0.2,0.1 -0.4,0.2 -0.5,0.4 -0.5,0.5 -1.1,1.3 -0.8,2.7 0.1,0.5 0.3,1 0.6,1.3 0.2,0.3 0.5,0.6 0.9,0.7 0.3,0.2 0.7,0.3 1,0.3 0.1,0 0.2,0 0.2,0 0.1,0 0.2,0 0.2,0 l 0.8,3.7 0.1,0.5 -12.6,-7.9 z"
           id="path4520" />
        <path
           style="fill:#010101"
           inkscape:connector-curvature="0"
           d="m 83.5,30.8 0.8,-3 c -0.1,0 -0.3,-0.1 -0.4,-0.1 -0.2,-0.1 -0.4,-0.1 -0.6,-0.2 l -0.8,2.9 c -0.4,-0.2 -0.7,-0.2 -0.7,-0.2 l -18.3,-4.9 -0.9,-4 C 62.5,20.8 62,20.2 61.4,20.1 l -4.6,-1.2 c -0.7,-1.2 -1.7,-2.1 -3,-2.4 -1.3,-0.3 -2.7,-0.1 -3.8,0.6 l -5,-1.3 c -0.5,-0.1 -1.2,0.1 -1.5,0.5 L 41,19.4 22.6,14.5 c 0,0 -0.2,-0.1 -0.6,-0.1 l 0.8,-2.9 c -0.2,0 -0.3,-0.1 -0.5,-0.1 -0.2,0 -0.4,-0.1 -0.5,-0.1 l -1,2.7 c -1.3,-0.1 -3,0 -3.3,1.2 -0.5,2 -0.7,3.6 0.2,5.5 0.9,1.9 2.3,0.9 3,-0.1 0.7,-1 3.7,-4 3.7,-4 0,0 8.4,2.2 18.6,5 l 0.1,4.6 0,0 c -1,0.8 -2.2,1.8 -3,3.1 -0.6,0.8 -1,1.8 -1.1,2.8 0,0.2 -0.1,0.4 -0.1,0.6 0,0.2 0,0.4 0,0.6 -0.1,0.8 -0.1,1.5 -0.1,2.1 0,0.1 0,0.3 0,0.4 0,0.1 0,0.3 0,0.4 0.1,1.2 0.3,1.6 0.3,1.6 0,0 0.1,0.4 0.2,0.6 0,0.1 0.1,0.1 0.2,0.2 0.1,0 0.3,-0.1 0.4,-0.8 0,-0.1 0,-0.1 0,-0.2 0.1,-0.9 0.1,-1.4 0,-2 0,-0.1 0,-0.2 0,-0.4 0,-0.1 0,-0.2 0,-0.4 0,-0.4 -0.1,-0.8 0,-1.4 0,-0.4 0,-0.8 0.1,-1.3 0,0 0,0 0,0 0.1,-0.8 0.5,-1.6 1,-2.4 0.8,-1.2 2,-2.2 2.9,-3 l 0.2,0 0.3,0.1 12.4,3.5 c 0.4,1.9 0.6,4.3 -0.3,5.9 -0.8,1.3 -1.3,2 -1.8,2.5 -0.1,0.1 -0.2,0.2 -0.2,0.3 0,0 -0.1,0.1 -0.1,0.1 L 55,40 c 0,0 0.1,-0.1 0.1,-0.1 0.1,-0.1 0.1,-0.2 0.2,-0.3 0.5,-0.7 1.1,-1.5 1.8,-2.7 1.2,-2 1,-4.7 0.6,-6.7 l 2.7,-4.1 c 10.5,2.8 19.1,5.1 19.1,5.1 l 0.7,5.2 c 0,0 0.1,0.9 1.7,1.4 1.6,0.5 3.6,-2.6 4.1,-4.4 0.2,-1 -1.3,-2 -2.5,-2.6 z"
           id="path4522" />
      </g>
      <path
         style="fill:#010101"
         inkscape:connector-curvature="0"
         d="m 84.9,25.2 -1,-0.3 -10.3,-2.8 c 0.1,0.2 0.2,0.4 0.5,0.6 0.5,0.4 1.2,0.9 2.1,1.4 1,0.5 2.1,1 3.4,1.5 1.2,0.4 2.4,0.8 3.7,1.2 0.2,0.1 0.4,0.1 0.6,0.2 0.1,0 0.3,0.1 0.4,0.1 3.2,0.8 6.3,1.3 8.5,1.3 0,0 0,0 0,0 0.8,0 1.5,-0.1 2,-0.2 0.2,-0.1 0.4,-0.1 0.5,-0.2 L 84.9,25.2 z"
         id="path4524" />
      <path
         style="fill:#010101"
         inkscape:connector-curvature="0"
         d="M 23.4,8.7 22.4,8.4 12,5.6 c 0.1,0.2 0.2,0.4 0.5,0.6 0.5,0.4 1.2,0.9 2.1,1.4 1,0.5 2.1,1 3.4,1.5 1.2,0.4 2.5,0.8 3.8,1.2 0.2,0 0.4,0.1 0.5,0.1 0.2,0 0.3,0.1 0.5,0.1 3.2,0.8 6.3,1.3 8.5,1.3 0,0 0,0 0,0 0.8,0 1.5,-0.1 2,-0.2 0.2,-0.1 0.4,-0.1 0.5,-0.2 L 23.4,8.7 z"
         id="path4526" />
    </g>
  </g>
</svg>
